<?xml version="1.0" encoding="UTF-8" standalone="no"?>
<!-- Created with Inkscape (http://www.inkscape.org/) -->

<svg
   xmlns:dc="http://purl.org/dc/elements/1.1/"
   xmlns:cc="http://creativecommons.org/ns#"
   xmlns:rdf="http://www.w3.org/1999/02/22-rdf-syntax-ns#"
   xmlns:svg="http://www.w3.org/2000/svg"
   xmlns="http://www.w3.org/2000/svg"
   xmlns:sodipodi="http://sodipodi.sourceforge.net/DTD/sodipodi-0.dtd"
   xmlns:inkscape="http://www.inkscape.org/namespaces/inkscape"
   id="svg2"
   version="1.1"
   inkscape:version="0.47 r22583"
   width="300"
   height="268"
   xml:space="preserve"
   sodipodi:docname="dabur.pdf"><metadata
     id="metadata8"><rdf:RDF><cc:Work
         rdf:about=""><dc:format>image/svg+xml</dc:format><dc:type
           rdf:resource="http://purl.org/dc/dcmitype/StillImage" /><dc:title></dc:title></cc:Work></rdf:RDF></metadata><defs
     id="defs6"><inkscape:perspective
       sodipodi:type="inkscape:persp3d"
       inkscape:vp_x="0 : 0.5 : 1"
       inkscape:vp_y="0 : 1000 : 0"
       inkscape:vp_z="1 : 0.5 : 1"
       inkscape:persp3d-origin="0.5 : 0.33333333 : 1"
       id="perspective10" /><clipPath
       clipPathUnits="userSpaceOnUse"
       id="clipPath102"><path
         d="m 228.02,618.04 166.68,0 0,-163.32 -166.68,0 0,163.32 z"
         id="path104" /></clipPath></defs><sodipodi:namedview
     pagecolor="#ffffff"
     bordercolor="#666666"
     borderopacity="1"
     objecttolerance="10"
     gridtolerance="10"
     guidetolerance="10"
     inkscape:pageopacity="0"
     inkscape:pageshadow="2"
     inkscape:window-width="1280"
     inkscape:window-height="750"
     id="namedview4"
     showgrid="false"
     inkscape:zoom="1.661505"
     inkscape:cx="160.74336"
     inkscape:cy="134.89002"
     inkscape:window-x="-8"
     inkscape:window-y="-8"
     inkscape:window-maximized="1"
     inkscape:current-layer="g12" /><g
     id="g12"
     inkscape:groupmode="layer"
     inkscape:label="dabur"
     transform="matrix(1.25,0,0,-1.25,-183.98811,781.48271)"><g
       id="g3068"
       transform="matrix(1.4212389,0,0,1.4212389,-175.55184,-255.04606)"><path
         id="path58"
         style="fill:#1b5c29;fill-opacity:1;fill-rule:nonzero;stroke:none"
         d="m 326.328,493.846 -0.002,0.002 c -1.113,1.215 -2.783,1.352 -4.367,1.352 -1.67,0 -3.228,-0.244 -5.355,-1.684 2.662,6.629 6.87,15.69 6.912,15.786 l 0.208,0.441 -0.487,-0.047 c -0.025,-0.001 -2.568,-0.263 -7.694,-1.47 l -0.144,-0.037 -0.378,-1.028 -10.689,-27.857 c 0,0 -0.784,-1.686 -3.118,-3.041 -1.221,-0.707 -1.908,-0.793 -2.315,-0.853 -0.393,-0.074 -0.499,0.302 -0.451,0.432 0.309,0.852 1.177,3.222 1.177,3.222 2.59,7.254 4.2,11.623 4.919,13.358 l 0.94,2.269 -7.057,0 c 0,0 -0.123,-0.228 -0.169,-0.309 -0.813,0.489 -1.766,0.771 -2.882,0.771 -1.566,0 -3.582,-0.893 -6.343,-2.814 -2.838,-1.994 -5.277,-4.311 -7.265,-6.897 -2.476,-3.272 -3.731,-6.543 -3.731,-9.721 0,-1.464 0.34,-2.737 1.014,-3.787 0.556,-0.88 1.657,-1.932 3.728,-1.932 2.685,0 5.281,1 7.73,2.915 0.189,-0.656 0.594,-1.261 1.365,-1.807 1.006,-0.723 2.42,-1.073 2.989,-1.101 0.57,-0.026 2.671,0.074 4.533,1.032 1.579,0.813 2.557,1.861 3.441,3.22 0.457,-1.109 1.059,-2.05 1.807,-2.79 0.975,-0.975 2.203,-1.469 3.646,-1.469 4.042,0 8.284,1.992 12.605,5.914 4.666,4.225 7.037,8.808 7.037,13.625 0,1.678 -0.54,3.125 -1.604,4.305 z m -9.563,-14.512 c -2.754,-4.09 -3.661,-4.333 -4.634,-4.408 -0.558,-0.047 -0.967,0.129 -1.283,0.407 -0.187,0.162 -0.391,0.479 -0.361,0.917 0,0 0.061,0.532 0.114,0.744 0.057,0.212 0.814,2.89 2.071,5.727 1.256,2.842 1.758,3.559 2.724,4.696 1.62,1.908 3.405,2.705 4.297,2.209 1.753,-0.972 -0.823,-7.158 -2.928,-10.292 z m -30.567,-3.958 c -1.446,0.703 -0.318,3.853 2.178,8.357 2.033,3.676 4.057,5.526 5.97,5.526 0.237,0 0.504,-0.053 0.837,-0.425 0.307,-0.344 0.447,-0.674 0.447,-1.038 0,-1.011 -0.539,-3.066 -3.12,-7.09 -2.27,-3.537 -5.13,-5.903 -6.312,-5.33" /><path
         id="path60"
         style="fill:#1b5c29;fill-opacity:1;fill-rule:nonzero;stroke:none"
         d="m 373.371,493.154 0,0 c -0.968,1.03 -2.333,1.552 -4.058,1.552 -1.302,0 -2.623,-0.586 -3.997,-1.565 0.157,0.443 0.449,1.26 0.449,1.26 l -7.354,0.008 -5.666,-16.897 c -0.795,-0.838 -1.78,-1.596 -2.208,-1.851 -0.921,-0.536 -2.232,-1.03 -3.338,-0.583 0,0 -0.534,0.27 -0.414,0.591 0.362,1.068 2.081,6.124 2.081,6.124 1.513,4.47 2.849,8.184 3.869,10.746 l 0.891,2.243 -7.443,0 -0.405,-1.061 c -1.314,-3.483 -2.406,-6.111 -3.338,-8.041 -1.461,-3.072 -2.924,-5.443 -4.345,-7.051 -1.307,-1.455 -2.476,-2.625 -3.958,-2.619 -0.118,0 -0.252,-10e-4 -0.362,0.025 -0.206,0.049 -0.366,0.304 -0.289,0.47 1.118,2.954 7.125,18.277 7.125,18.277 l -7.604,0 c 0,0 -7.27,-18.454 -7.392,-20.088 -0.098,-1.345 0.6,-2.479 1.534,-3.369 0.926,-0.88 2.06,-1.323 3.369,-1.323 2.416,0 5.16,1.421 8.326,4.203 -0.003,-0.011 -0.026,-0.068 -0.026,-0.068 0,-0.007 -0.145,-0.749 -0.145,-0.749 0,-0.708 0.394,-1.724 2.267,-2.572 1.211,-0.54 2.352,-0.814 3.385,-0.814 1.793,0 3.283,0.258 5.176,1.546 0.814,0.553 1.378,1.116 1.812,1.681 l -1.083,-3.227 7.332,0 0.35,1.171 c 0.895,3.017 1.782,5.631 2.641,7.766 1.206,3.072 2.423,5.551 3.621,7.374 1.377,2.079 2.133,2.377 2.795,2.641 0,0 0.499,0.244 1.448,0.339 0.801,0.081 1.605,-0.537 1.836,-1.015 0.254,-0.522 -0.067,-1.412 -0.363,-2.146 -0.267,-0.663 -0.457,-1.141 -0.25,-1.451 0.064,-0.098 0.198,-0.214 0.451,-0.214 1.452,0 2.671,0.545 3.525,1.568 0.788,0.96 1.187,2.105 1.187,3.407 0,1.465 -0.482,2.713 -1.432,3.712" /><path
         id="path62"
         style="fill:#1b5c29;fill-opacity:1;fill-rule:nonzero;stroke:none"
         d="m 267.208,510.617 0.011,-0.009 c -0.07,0.046 -7.198,4.329 -14.084,4.707 -8.163,0.448 -22.622,-3.182 -25.054,-19.621 l 0.545,-0.111 c 1.917,7.319 8.825,14.248 16.423,16.476 4.594,1.341 9.74,0.821 14.486,-1.469 5.689,-2.864 10.303,-9.606 10.967,-16.028 0.385,-3.733 -0.346,-9.133 -6.017,-13.65 -4.734,-3.836 -12.901,-5.313 -15.887,-2.874 -1.394,1.14 -1.007,2.941 -0.16,5.539 l 9.338,23.765 -0.089,0.123 c -0.18,0.251 -4.442,6.135 -8.514,4.246 -1.307,-0.608 -10.02,-29.451 -12.66,-38.276 l -0.074,-0.249 0.242,-0.09 c 12.485,-4.613 23.345,-4.786 32.284,-0.504 6.688,2.784 11.446,9.705 11.825,17.216 0.417,8.334 -4.533,15.916 -13.582,20.809" /><path
         id="path64"
         style="fill:#1b5c29;fill-opacity:1;fill-rule:nonzero;stroke:none"
         d="m 246.475,564.179 c -0.41,0.859 -2.225,4.048 -5.264,4.909 -3.106,0.878 -5.949,-0.374 -7.315,-1.369 l 12.579,-3.54" /><path
         id="path66"
         style="fill:#52b12f;fill-opacity:1;fill-rule:nonzero;stroke:none"
         d="m 239.618,562.77 c 2.834,-0.815 5.836,0.728 6.857,1.409 l -12.579,3.54 c 0.904,-1.521 2.186,-3.932 5.722,-4.949" /><path
         id="path68"
         style="fill:#1b5c29;fill-opacity:1;fill-rule:nonzero;stroke:none"
         d="m 248.884,570.738 c 0.143,1.144 0.218,4.669 -1.831,7 -2.182,2.48 -5.139,2.971 -6.825,2.827 l 8.656,-9.827" /><path
         id="path70"
         style="fill:#52b12f;fill-opacity:1;fill-rule:nonzero;stroke:none"
         d="m 242.392,573.244 c 2.003,-2.167 5.263,-2.558 6.492,-2.506 l -8.656,9.827 c -0.015,-1.768 -0.333,-4.619 2.164,-7.321" /><path
         id="path72"
         style="fill:#52b12f;fill-opacity:1;fill-rule:nonzero;stroke:none"
         d="m 258.245,538.389 c -1.304,0.479 -6.162,1.364 -9.258,-0.811 -3.182,-2.23 -4.147,-5.973 -4.351,-7.961 l 13.609,8.772" /><path
         id="path74"
         style="fill:#1b5c29;fill-opacity:1;fill-rule:nonzero;stroke:none"
         d="m 253.879,530.512 c 3.228,2.097 4.3,6.272 4.366,7.877 l -13.609,-8.772 c 2.414,-0.698 6.125,-1.128 9.243,0.895" /><path
         id="path76"
         style="fill:#52b12f;fill-opacity:1;fill-rule:nonzero;stroke:none"
         d="m 257.456,542.843 c -0.805,1.26 -5.065,5.761 -9.78,6.172 -4.549,0.392 -8.617,-1.558 -10.398,-3.047 l 20.178,-3.125" /><path
         id="path78"
         style="fill:#1b5c29;fill-opacity:1;fill-rule:nonzero;stroke:none"
         d="m 246.552,539.911 c 4.642,-0.837 9.309,1.631 10.904,2.932 l -20.178,3.125 c 2.019,-2.511 4.869,-5.262 9.274,-6.057" /><path
         id="path80"
         style="fill:#52b12f;fill-opacity:1;fill-rule:nonzero;stroke:none"
         d="m 292.183,581.938 c -0.528,1.243 -3.112,5.696 -7.246,7.267 -4.539,1.726 -8.811,0.487 -10.766,-0.637 l 18.012,-6.63" /><path
         id="path82"
         style="fill:#1b5c29;fill-opacity:1;fill-rule:nonzero;stroke:none"
         d="m 281.532,581.28 c 4.083,-1.665 8.858,-0.239 10.651,0.658 l -18.012,6.63 c 1.405,-2.658 3.489,-5.708 7.361,-7.288" /><path
         id="path84"
         style="fill:#52b12f;fill-opacity:1;fill-rule:nonzero;stroke:none"
         d="m 268.605,531.966 c 0.095,1.453 -0.023,4.655 -2.101,7.046 -2.24,2.576 -5.237,3.086 -6.836,3.179 l 8.937,-10.225" /><path
         id="path86"
         style="fill:#1b5c29;fill-opacity:1;fill-rule:nonzero;stroke:none"
         d="m 261.926,534.971 c 2.076,-2.4 5.361,-3.133 6.679,-3.005 l -8.937,10.225 c -0.15,-1.763 0.25,-4.902 2.258,-7.22" /><path
         id="path88"
         style="fill:#52b12f;fill-opacity:1;fill-rule:nonzero;stroke:none"
         d="m 269.654,544.672 c -0.439,1.144 -1.975,4.24 -4.882,5.486 -3.134,1.347 -6.035,0.587 -7.521,-0.006 l 12.403,-5.48" /><path
         id="path90"
         style="fill:#1b5c29;fill-opacity:1;fill-rule:nonzero;stroke:none"
         d="m 262.014,544.729 c 3.141,-1.559 6.498,-0.733 7.64,-0.057 l -12.403,5.48 c 0.682,-1.631 2.026,-4.061 4.763,-5.423" /><path
         id="path92"
         style="fill:#1b5c29;fill-opacity:1;fill-rule:nonzero;stroke:none"
         d="m 256.941,555.709 c -0.751,0.948 -3.222,3.63 -6.601,3.879 -3.624,0.268 -6.173,-1.872 -7.371,-3.053 l 13.972,-0.826" /><path
         id="path94"
         style="fill:#52b12f;fill-opacity:1;fill-rule:nonzero;stroke:none"
         d="m 250.004,552.622 c 3.202,-0.178 6.082,2.205 6.937,3.087 l -13.972,0.826 c 1.204,-1.293 3.365,-3.708 7.035,-3.913" /><path
         id="path96"
         style="fill:#1b5c29;fill-opacity:1;fill-rule:nonzero;stroke:none"
         d="m 300.776,596.227 c 0.72,1.224 2.594,5.008 1.431,8.787 -1.252,4.053 -4.644,5.892 -6.452,6.687 l 5.021,-15.474" /><g
         id="g98"><g
           clip-path="url(#clipPath102)"
           id="g100"><path
             id="path106"
             style="fill:#52b12f;fill-opacity:1;fill-rule:nonzero;stroke:none"
             d="m 294.572,602.396 c 1.169,-3.554 4.874,-5.617 6.204,-6.169 l -5.021,15.474 c -0.905,-1.865 -2.523,-5.229 -1.183,-9.305" /><path
             id="path108"
             style="fill:#52b12f;fill-opacity:1;fill-rule:nonzero;stroke:none"
             d="m 315.097,603.458 c 0.819,1.073 2.965,4.445 2.267,8.107 -0.746,3.927 -3.707,6.074 -5.334,7.002 l 3.067,-15.109" /><path
             id="path110"
             style="fill:#1b5c29;fill-opacity:1;fill-rule:nonzero;stroke:none"
             d="m 309.866,610.018 c 0.858,-3.839 4.299,-5.908 5.231,-6.56 l -3.067,15.109 c -1.091,-1.51 -3.035,-4.641 -2.164,-8.549" /></g></g><path
         id="path112"
         style="fill:#52b12f;fill-opacity:1;fill-rule:nonzero;stroke:none"
         d="m 316.493,585.387 c 1.044,0.825 3.811,4.015 3.637,7.575 -0.161,3.304 -3.001,6.191 -4.56,7.269 l 0.923,-14.844" /><path
         id="path114"
         style="fill:#1b5c29;fill-opacity:1;fill-rule:nonzero;stroke:none"
         d="m 312.121,592.397 c 0.339,-3.749 3.496,-6.278 4.372,-7.01 l -0.923,14.844 c -1.35,-1.302 -3.796,-4.016 -3.449,-7.834" /><path
         id="path116"
         style="fill:#52b12f;fill-opacity:1;fill-rule:nonzero;stroke:none"
         d="m 321.619,576 c 1.176,0.53 4.44,2.455 5.239,6.297 0.657,3.171 -1.27,6.6 -2.453,7.999 L 321.619,576" /><path
         id="path118"
         style="fill:#1b5c29;fill-opacity:1;fill-rule:nonzero;stroke:none"
         d="m 319.282,583.71 c -0.582,-3.397 1.705,-6.803 2.337,-7.71 l 2.786,14.296 c -1.572,-0.906 -4.487,-2.885 -5.123,-6.586" /><path
         id="path120"
         style="fill:#52b12f;fill-opacity:1;fill-rule:nonzero;stroke:none"
         d="m 335.45,557.874 c 1.319,-0.147 5.227,-0.122 7.905,2.859 2.209,2.458 2.271,6.524 1.931,8.383 l -9.836,-11.242" /><path
         id="path122"
         style="fill:#1b5c29;fill-opacity:1;fill-rule:nonzero;stroke:none"
         d="m 337.306,565.949 c -2.22,-2.73 -1.96,-6.941 -1.856,-8.075 l 9.836,11.242 c -1.594,0.141 -5.381,0.031 -7.98,-3.167" /><path
         id="path124"
         style="fill:#52b12f;fill-opacity:1;fill-rule:nonzero;stroke:none"
         d="m 363.012,566.031 c 1.352,-0.097 5.268,0.173 8.164,3.089 2.409,2.431 2.687,6.631 2.479,8.504 l -10.643,-11.593" /><path
         id="path126"
         style="fill:#1b5c29;fill-opacity:1;fill-rule:nonzero;stroke:none"
         d="m 365.281,574.335 c -2.519,-2.836 -2.352,-7.128 -2.269,-8.304 l 10.643,11.593 c -1.647,0.181 -5.862,-0.464 -8.374,-3.289" /><path
         id="path128"
         style="fill:#52b12f;fill-opacity:1;fill-rule:nonzero;stroke:none"
         d="m 339.471,580.365 c 1.23,0.288 4.936,1.664 6.483,4.809 1.47,2.986 0.734,6.609 -0.03,8.25 l -6.453,-13.059" /><path
         id="path130"
         style="fill:#1b5c29;fill-opacity:1;fill-rule:nonzero;stroke:none"
         d="m 339.343,588.317 c -1.535,-3.208 -0.24,-6.925 0.128,-7.952 l 6.453,13.059 c -1.732,-0.458 -4.981,-1.766 -6.581,-5.107" /><path
         id="path132"
         style="fill:#52b12f;fill-opacity:1;fill-rule:nonzero;stroke:none"
         d="m 336.32,594.317 c 1.261,0.158 5.152,1.134 7.081,4.14 1.829,2.853 1.438,6.535 0.995,8.333 l -8.076,-12.473" /><path
         id="path134"
         style="fill:#1b5c29;fill-opacity:1;fill-rule:nonzero;stroke:none"
         d="m 337.157,602.401 c -1.924,-3.071 -1.082,-7.01 -0.837,-8.084 l 8.076,12.473 c -1.786,-0.28 -5.236,-1.19 -7.239,-4.389" /><path
         id="path136"
         style="fill:#52b12f;fill-opacity:1;fill-rule:nonzero;stroke:none"
         d="m 350.002,587.736 c 1.056,-0.199 4.43,-0.425 6.723,1.492 2.172,1.819 2.757,4.882 2.84,6.441 l -9.563,-7.933" /><path
         id="path138"
         style="fill:#1b5c29;fill-opacity:1;fill-rule:nonzero;stroke:none"
         d="m 352.656,594.019 c -2.301,-1.969 -2.588,-5.356 -2.654,-6.283 l 9.563,7.933 c -1.505,0.242 -4.508,0.404 -6.909,-1.65" /><path
         id="path140"
         style="fill:#52b12f;fill-opacity:1;fill-rule:nonzero;stroke:none"
         d="m 362.646,579.164 c 1.103,0.246 4.507,1.129 6.066,4.254 1.524,3.054 0.77,5.95 0.249,7.51 l -6.315,-11.764" /><path
         id="path142"
         style="fill:#1b5c29;fill-opacity:1;fill-rule:nonzero;stroke:none"
         d="m 362.784,586.467 c -1.48,-2.887 -0.532,-6.119 -0.138,-7.303 l 6.315,11.764 c -1.557,-0.392 -4.634,-1.454 -6.177,-4.461" /><path
         id="path144"
         style="fill:#52b12f;fill-opacity:1;fill-rule:nonzero;stroke:none"
         d="m 353.463,562.94 c 1.133,0.269 4.623,1.235 6.177,4.478 1.516,3.167 0.695,6.134 0.132,7.732 l -6.309,-12.21" /><path
         id="path146"
         style="fill:#1b5c29;fill-opacity:1;fill-rule:nonzero;stroke:none"
         d="m 353.488,570.455 c -1.476,-2.996 -0.446,-6.304 -0.025,-7.515 l 6.309,12.21 c -1.597,-0.429 -4.746,-1.572 -6.284,-4.695" /><path
         id="path148"
         style="fill:#52b12f;fill-opacity:1;fill-rule:nonzero;stroke:none"
         d="m 373.691,568.871 c 0.976,-0.332 4.043,-1.246 6.746,0.452 2.641,1.659 3.435,4.265 3.775,5.726 l -10.521,-6.178" /><path
         id="path150"
         style="fill:#1b5c29;fill-opacity:1;fill-rule:nonzero;stroke:none"
         d="m 377.281,574.485 c -2.529,-1.549 -3.329,-4.508 -3.59,-5.614 l 10.521,6.178 c -1.399,0.427 -4.298,1.05 -6.931,-0.564" /><path
         id="path152"
         style="fill:#52b12f;fill-opacity:1;fill-rule:nonzero;stroke:none"
         d="m 368.882,558.222 c 0.886,-0.594 3.68,-2.239 6.872,-1.373 3.184,0.862 4.398,3.306 5.325,4.706 l -12.197,-3.333" /><path
         id="path154"
         style="fill:#1b5c29;fill-opacity:1;fill-rule:nonzero;stroke:none"
         d="m 373.99,562.868 c -2.949,-0.865 -4.549,-3.61 -5.108,-4.646 l 12.197,3.333 c -1.285,0.808 -4.018,2.217 -7.089,1.313" /><path
         id="path156"
         style="fill:#1b5c29;fill-opacity:1;fill-rule:nonzero;stroke:none"
         d="m 379.536,555.861 c 0.853,-0.956 3.64,-3.663 7.578,-3.616 4.03,0.047 6.235,2.314 7.54,3.934 l -15.118,-0.318" /><path
         id="path158"
         style="fill:#52b12f;fill-opacity:1;fill-rule:nonzero;stroke:none"
         d="m 386.799,559.827 c -3.655,-0.156 -6.32,-2.911 -7.263,-3.966 l 15.118,0.318 c -1.253,1.321 -4.048,3.808 -7.855,3.648" /><path
         id="path160"
         style="fill:#1b5c29;fill-opacity:1;fill-rule:nonzero;stroke:none"
         d="m 368.173,556.301 c -0.077,-1.064 -0.038,-4.421 2.311,-6.753 2.301,-2.286 5.206,-2.177 6.764,-2.196 l -9.075,8.949" /><path
         id="path162"
         style="fill:#52b12f;fill-opacity:1;fill-rule:nonzero;stroke:none"
         d="m 374.868,554.155 c -2.212,2.134 -5.518,2.174 -6.695,2.146 l 9.075,-8.949 c 0.065,1.514 -0.074,4.581 -2.38,6.803" /><path
         id="path164"
         style="fill:#52b12f;fill-opacity:1;fill-rule:nonzero;stroke:none"
         d="m 345.241,544.999 c 1.03,0.323 4.16,1.577 5.39,4.67 1.202,3.021 0.218,5.624 -0.401,7.065 l -4.989,-11.735" /><path
         id="path166"
         style="fill:#1b5c29;fill-opacity:1;fill-rule:nonzero;stroke:none"
         d="m 344.758,552.087 c -1.176,-2.859 0.016,-5.993 0.483,-7.088 l 4.989,11.735 c -1.448,-0.498 -4.247,-1.665 -5.472,-4.647" /><path
         id="path168"
         style="fill:#52b12f;fill-opacity:1;fill-rule:nonzero;stroke:none"
         d="m 361.403,540.375 c 0.415,1.078 0.804,4.629 -0.875,7.06 -1.752,2.543 -4.635,3.281 -6.161,3.548 l 7.036,-10.608" /><path
         id="path170"
         style="fill:#1b5c29;fill-opacity:1;fill-rule:nonzero;stroke:none"
         d="m 355.432,543.648 c 1.664,-2.31 4.815,-3.068 5.971,-3.273 l -7.036,10.608 c -0.42,-1.394 -0.827,-4.71 1.065,-7.335" /><path
         id="path172"
         style="fill:#52b12f;fill-opacity:1;fill-rule:nonzero;stroke:none"
         d="m 348.351,594.068 c 1.228,0.248 4.837,1.473 6.552,4.568 1.619,2.921 0.919,6.546 0.353,8.278 l -6.905,-12.846" /><path
         id="path174"
         style="fill:#1b5c29;fill-opacity:1;fill-rule:nonzero;stroke:none"
         d="m 348.538,602.064 c -1.67,-3.157 -0.573,-6.872 -0.187,-7.996 l 6.905,12.846 c -1.736,-0.4 -4.98,-1.559 -6.718,-4.85" /><path
         id="path176"
         style="fill:#1b5c29;fill-opacity:1;fill-rule:nonzero;stroke:none"
         d="m 288.287,604.718 c 0.627,1.216 1.616,4.164 0.606,6.852 -1.143,3.042 -3.96,4.41 -5.457,4.924 l 4.851,-11.776" /><path
         id="path178"
         style="fill:#52b12f;fill-opacity:1;fill-rule:nonzero;stroke:none"
         d="m 283.071,609.112 c 1.14,-2.544 4.066,-3.953 5.216,-4.394 l -4.851,11.776 c -0.664,-1.577 -1.785,-4.211 -0.365,-7.382" /><path
         id="path180"
         style="fill:#1b5c29;fill-opacity:1;fill-rule:nonzero;stroke:none"
         d="m 308.56,592.212 c 0.988,1.039 2.809,3.691 2.565,6.672 -0.274,3.373 -2.753,5.545 -4.126,6.489 l 1.561,-13.161" /><path
         id="path182"
         style="fill:#52b12f;fill-opacity:1;fill-rule:nonzero;stroke:none"
         d="m 304.496,598.074 c 0.416,-2.871 3.024,-5.095 4.064,-5.862 l -1.561,13.161 c -1.132,-1.391 -3.023,-3.715 -2.503,-7.299" /><path
         id="path184"
         style="fill:#52b12f;fill-opacity:1;fill-rule:nonzero;stroke:none"
         d="m 322.687,595.968 c 1.14,0.735 3.407,2.804 3.868,5.618 0.525,3.186 -1.228,5.804 -2.261,6.991 l -1.607,-12.609" /><path
         id="path186"
         style="fill:#1b5c29;fill-opacity:1;fill-rule:nonzero;stroke:none"
         d="m 320.335,602.358 c -0.281,-2.754 1.583,-5.442 2.352,-6.39 l 1.607,12.609 c -1.353,-1.028 -3.611,-2.78 -3.959,-6.219" /><path
         id="path188"
         style="fill:#52b12f;fill-opacity:1;fill-rule:nonzero;stroke:none"
         d="m 327.866,590.134 c 1.032,0.418 3.206,1.775 4.035,3.963 0.993,2.62 -0.117,5.011 -0.768,6.129 l -3.267,-10.092" /><path
         id="path190"
         style="fill:#1b5c29;fill-opacity:1;fill-rule:nonzero;stroke:none"
         d="m 326.929,595.63 c -0.614,-2.187 0.462,-4.614 0.937,-5.496 l 3.267,10.092 c -1.25,-0.622 -3.402,-1.72 -4.204,-4.596" /><path
         id="path192"
         style="fill:#52b12f;fill-opacity:1;fill-rule:nonzero;stroke:none"
         d="m 331.136,576.272 c 1.144,0.453 3.581,1.87 4.492,4.268 1.089,2.868 -0.089,5.523 -0.82,6.75 l -3.672,-11.018" /><path
         id="path194"
         style="fill:#1b5c29;fill-opacity:1;fill-rule:nonzero;stroke:none"
         d="m 330.097,582.247 c -0.67,-2.399 0.509,-5.004 1.039,-5.975 l 3.672,11.018 c -1.382,-0.675 -3.833,-1.893 -4.711,-5.043" /><path
         id="path196"
         style="fill:#1b5c29;fill-opacity:1;fill-rule:nonzero;stroke:none"
         d="m 289.543,590.312 c 0.447,3.228 -0.29,6.212 -2.08,8.357 -2.255,2.703 -6.216,3.517 -7.948,3.385 l 10.028,-11.742" /><path
         id="path198"
         style="fill:#52b12f;fill-opacity:1;fill-rule:nonzero;stroke:none"
         d="m 281.588,593.786 c 1.868,-2.067 4.126,-3.238 7.955,-3.474 l -10.028,11.742 c -0.208,-1.68 -0.258,-5.691 2.073,-8.268" /><path
         id="path200"
         style="fill:#1b5c29;fill-opacity:1;fill-rule:nonzero;stroke:none"
         d="m 299.407,565.079 c 1.336,2.818 1.751,5.948 0.694,8.403 -1.582,3.667 -4.992,5.024 -6.611,5.401 l 5.917,-13.804" /><path
         id="path202"
         style="fill:#52b12f;fill-opacity:1;fill-rule:nonzero;stroke:none"
         d="m 292.974,570.699 c 1.11,-2.423 3.004,-4.301 6.433,-5.62 l -5.917,13.804 c -0.673,-1.472 -1.902,-5.159 -0.516,-8.184" /><path
         id="path204"
         style="fill:#1b5c29;fill-opacity:1;fill-rule:nonzero;stroke:none"
         d="m 331.156,602.962 c 2.573,1.038 4.681,2.684 5.568,4.999 1.103,2.871 -0.149,6.479 -1.019,7.777 l -4.549,-12.776" /><path
         id="path206"
         style="fill:#52b12f;fill-opacity:1;fill-rule:nonzero;stroke:none"
         d="m 330.077,610.68 c -0.892,-2.329 -0.444,-4.641 1.079,-7.718 l 4.549,12.776 c -1.585,-0.488 -4.53,-2.174 -5.628,-5.058" /><path
         id="path208"
         style="fill:#1b5c29;fill-opacity:1;fill-rule:nonzero;stroke:none"
         d="m 308.748,573.87 c 1.682,2.731 2.753,5.956 2.088,8.534 -1.114,4.31 -4.771,6.151 -6.336,6.811 l 4.248,-15.345" /><path
         id="path210"
         style="fill:#52b12f;fill-opacity:1;fill-rule:nonzero;stroke:none"
         d="m 302.563,580.144 c 0.806,-2.715 3.095,-4.891 6.185,-6.274 l -4.248,15.345 c -1.357,-1.948 -2.943,-5.681 -1.937,-9.071" /><path
         id="path212"
         style="fill:#52b12f;fill-opacity:1;fill-rule:nonzero;stroke:none"
         d="m 340.712,572.592 c 3.368,-1.313 7.307,-1.459 10.132,-0.157 4.538,2.094 5.977,6.703 6.635,8.499 l -16.767,-8.342" /><path
         id="path214"
         style="fill:#1b5c29;fill-opacity:1;fill-rule:nonzero;stroke:none"
         d="m 346.742,580.784 c -2.934,-1.537 -4.935,-4.639 -6.03,-8.192 l 16.767,8.342 c -2.467,0.972 -6.811,1.907 -10.737,-0.15" /><path
         id="path216"
         style="fill:#52b12f;fill-opacity:1;fill-rule:nonzero;stroke:none"
         d="m 352.554,552.882 c 3.383,-0.93 7.33,-0.705 9.965,0.768 4.226,2.367 5.28,6.721 5.757,8.543 l -15.722,-9.311" /><path
         id="path218"
         style="fill:#1b5c29;fill-opacity:1;fill-rule:nonzero;stroke:none"
         d="m 357.686,561.097 c -2.727,-1.698 -4.384,-4.628 -5.132,-8.215 l 15.722,9.311 c -2.521,0.681 -7.064,1.1 -10.59,-1.096" /><path
         id="path220"
         style="fill:#52b12f;fill-opacity:1;fill-rule:nonzero;stroke:none"
         d="m 375.595,534.386 c 0.926,3.671 0.402,7.265 -1.169,9.603 -2.469,3.674 -6.727,4.653 -8.516,4.983 l 9.685,-14.586" /><path
         id="path222"
         style="fill:#1b5c29;fill-opacity:1;fill-rule:nonzero;stroke:none"
         d="m 367.392,538.821 c 1.731,-2.387 4.74,-3.75 8.203,-4.435 l -9.685,14.586 c -0.758,-2.535 -0.974,-6.758 1.482,-10.151" /><path
         id="path224"
         style="fill:#1b5c29;fill-opacity:1;fill-rule:nonzero;stroke:none"
         d="m 297.508,583.25 c 1.455,2.638 1.907,5.736 1.014,8.132 -1.276,3.422 -4.377,5.133 -5.928,5.694 l 4.914,-13.826" /><path
         id="path226"
         style="fill:#52b12f;fill-opacity:1;fill-rule:nonzero;stroke:none"
         d="m 291.562,589.108 c 0.952,-2.598 2.627,-4.336 5.946,-5.858 l -4.914,13.826 c -0.76,-1.421 -2.17,-4.861 -1.032,-7.968" /><path
         id="path228"
         style="fill:#52b12f;fill-opacity:1;fill-rule:nonzero;stroke:none"
         d="m 260.962,574.268 c 0.105,1.132 0.213,4.692 -1.88,6.849 -2.225,2.296 -5.152,2.593 -6.805,2.343 l 8.685,-9.192" /><path
         id="path230"
         style="fill:#1b5c29;fill-opacity:1;fill-rule:nonzero;stroke:none"
         d="m 254.651,576.396 c 2.042,-1.995 5.106,-2.26 6.311,-2.128 l -8.685,9.192 c -0.107,-1.435 -0.173,-4.57 2.374,-7.064" /><path
         id="path232"
         style="fill:#1b5c29;fill-opacity:1;fill-rule:nonzero;stroke:none"
         d="m 275.287,581.391 c -0.383,1.121 -1.293,4.285 -4.662,6.042 -2.777,1.449 -6.458,0.696 -8,-0.103 l 12.662,-5.939" /><path
         id="path234"
         style="fill:#52b12f;fill-opacity:1;fill-rule:nonzero;stroke:none"
         d="m 267.845,581.024 c 2.747,-1.199 6.295,-0.165 7.442,0.367 l -12.662,5.939 c 0.514,-1.411 1.783,-4.804 5.22,-6.306" /><path
         id="path236"
         style="fill:#52b12f;fill-opacity:1;fill-rule:nonzero;stroke:none"
         d="m 277.579,593.544 c -0.08,1.394 -0.411,5.08 -3.806,8.338 -2.541,2.442 -6.044,2.395 -7.744,2.05 l 11.55,-10.388" /><path
         id="path238"
         style="fill:#1b5c29;fill-opacity:1;fill-rule:nonzero;stroke:none"
         d="m 269.428,596.196 c 2.306,-2.053 5.435,-2.845 8.151,-2.652 l -11.55,10.388 c 0.109,-1.498 0.464,-5.122 3.399,-7.736" /><path
         id="path240"
         style="fill:#1b5c29;fill-opacity:1;fill-rule:nonzero;stroke:none"
         d="m 277.968,572.9 c -0.562,1.046 -2.408,4.385 -5.608,5.234 -3.403,0.905 -6.466,-0.396 -7.855,-1.437 l 13.463,-3.797" /><path
         id="path242"
         style="fill:#52b12f;fill-opacity:1;fill-rule:nonzero;stroke:none"
         d="m 270.76,571.34 c 3.057,-0.735 6.162,0.848 7.208,1.56 l -13.463,3.797 c 0.735,-1.306 2.436,-4.437 6.255,-5.357" /><path
         id="path244"
         style="fill:#1b5c29;fill-opacity:1;fill-rule:nonzero;stroke:none"
         d="m 290.729,567.579 c -0.164,1.071 -1.23,4.544 -3.481,5.984 -2.477,1.58 -5.574,1.019 -6.961,0.444 l 10.442,-6.428" /><path
         id="path246"
         style="fill:#52b12f;fill-opacity:1;fill-rule:nonzero;stroke:none"
         d="m 284.212,567.75 c 2.379,-1.325 5.466,-0.63 6.517,-0.171 l -10.442,6.428 c 0.336,-1.253 1.051,-4.654 3.925,-6.257" /><path
         id="path248"
         style="fill:#52b12f;fill-opacity:1;fill-rule:nonzero;stroke:none"
         d="m 264,555.955 c 0.515,1.756 0.754,6.48 -1.059,9.683 -2.827,4.99 -7.593,6.273 -9.25,6.559 L 264,555.955" /><path
         id="path250"
         style="fill:#1b5c29;fill-opacity:1;fill-rule:nonzero;stroke:none"
         d="m 255.23,561.796 c 2.325,-3.878 7.231,-5.687 8.77,-5.841 l -10.309,16.242 c -0.461,-2.02 -0.86,-6.397 1.539,-10.401" /><path
         id="path252"
         style="fill:#52b12f;fill-opacity:1;fill-rule:nonzero;stroke:none"
         d="m 285.089,557.92 c -0.232,1.825 -1.902,6.441 -4.877,8.704 -4.629,3.526 -9.639,2.834 -11.288,2.452 l 16.165,-11.156" /><path
         id="path254"
         style="fill:#1b5c29;fill-opacity:1;fill-rule:nonzero;stroke:none"
         d="m 274.416,559.893 c 3.827,-2.765 9.309,-2.424 10.673,-1.973 l -16.165,11.156 c 0.261,-1.997 1.796,-6.512 5.492,-9.183" /><path
         id="path256"
         style="fill:#f4711f;fill-opacity:1;fill-rule:nonzero;stroke:none"
         d="m 321.13,544.509 c -1.3,-3.113 -1.076,-5.816 0.541,-5.95 1.612,-0.133 3.914,2.343 5.12,5.443 1.164,3 0.868,5.48 -0.648,5.626 -1.514,0.145 -3.743,-2.109 -5.013,-5.119" /><path
         id="path258"
         style="fill:#f4711f;fill-opacity:1;fill-rule:nonzero;stroke:none"
         d="m 313.593,567.036 c -1.51,-2.486 -1.725,-4.811 -0.442,-5.115 1.279,-0.313 3.507,1.513 4.934,3.998 1.386,2.41 1.497,4.558 0.298,4.864 -1.203,0.305 -3.329,-1.343 -4.79,-3.747" /><path
         id="path260"
         style="fill:#f4711f;fill-opacity:1;fill-rule:nonzero;stroke:none"
         d="m 298.974,543.764 c 1.685,0.623 1.018,3.295 -1.432,5.9 -2.375,2.519 -5.53,4.018 -7.107,3.416 -1.579,-0.597 -1.069,-3.082 1.197,-5.625 2.342,-2.621 5.657,-4.308 7.342,-3.691" /><path
         id="path262"
         style="fill:#f4711f;fill-opacity:1;fill-rule:nonzero;stroke:none"
         d="m 304.165,547.443 c -5.899,8.277 -7.217,11.125 -14.937,17.679 1.768,-3.265 29.972,-40.739 3.681,-21.15 0,0 -15.121,10.474 -34.896,9.384 0,0 38.507,-4.076 45.274,-30.017 0.062,-0.236 0.154,-1.576 0.122,-2.001 -0.263,-3.487 -1.469,-6.412 -2.501,-8.342 -0.846,-1.583 -2.444,-3.566 -2.934,-4.082 -2.43,-2.557 -6.716,-3.534 -8.35,-4.302 1.865,-1.329 8.172,-0.205 11.005,-0.006 l 10.506,-0.443 c 0.286,0.017 1.329,-0.052 1.856,-0.052 l 1.662,4.733 c 0,0 4.686,0.958 6.486,1.272 1.797,0.317 3.812,0.532 3.812,0.532 l -3.006,-6.709 c 3.315,-0.443 13.311,-1.551 15.147,-0.414 -2.085,0.855 -8.131,1.505 -10.597,5.024 -0.349,0.353 -2.821,8.888 -2.736,11.904 0.002,0.107 0.013,0.383 0.023,0.426 4.656,31.066 36.402,42.3 36.402,42.3 -20.551,-4.658 -31.633,-20.792 -31.633,-20.792 -20.842,-26.057 -6.385,12.274 -2.082,16.799 -7.762,-6.005 -10.607,-14.887 -10.607,-14.887 2.369,25.206 23.654,27.615 23.654,27.615 -10.965,0.305 -19.405,-8.861 -19.405,-8.861 -18.004,-19.44 -11.28,8.408 -3.63,12.38 -0.685,-0.364 -14.936,-6.403 -12.316,-27.99" /></g></g></svg>