<svg xmlns="http://www.w3.org/2000/svg" width="200.032" height="90" viewBox="0 0 200.032 90"><defs><style>.a{fill:#2666ad;}.b{fill:#333;}.c{fill:#f8ba0f;}.d{fill:#ee7a02;}.e{fill:#6e6e6e;}.f{fill:#626262;}.g{fill:#f19915;}</style></defs><g transform="translate(0.058 -0.044)"><path class="a" d="M217.18,114.357c-.206.564-.372,1.024-.528,1.473q-2.226,6.394-4.436,12.8a.694.694,0,0,1-.776.547c-2.909-.02-5.821,0-8.733,0-.6,0-.6,0-.4-.564l7.562-20.381c.536-1.448,1.084-2.9,1.606-4.348a.618.618,0,0,1,.677-.494q5.02.017,10.039,0a.629.629,0,0,1,.683.494q4.56,12.325,9.137,24.642c.042.113.079.229.118.341.073.212,0,.316-.229.313h-9.015a.655.655,0,0,1-.722-.508q-2.116-6.086-4.216-12.133C217.714,115.853,217.468,115.17,217.18,114.357Z" transform="translate(-179.796 -103.338)"/><path class="a" d="M394.163,114.471c-.135.37-.282.728-.4,1.089q-2.257,6.526-4.529,13.059a.683.683,0,0,1-.767.55c-2.912-.02-5.824,0-8.747,0-.593,0-.6-.017-.4-.578q4.529-12.218,9.063-24.438c.282-.77.282-.77,1.129-.77h9.594a.734.734,0,0,1,.818.564q4.515,12.181,9.029,24.354c.37.99.381.872-.6.875h-8.42a.691.691,0,0,1-.776-.55c-1.129-3.293-2.277-6.58-3.42-9.876l-1.377-3.95C394.332,114.691,394.332,114.555,394.163,114.471Z" transform="translate(-306.863 -103.33)"/><path class="a" d="M135.085,103.587H146.7c.646,0,.646,0,.649.655v6.439c0,.564-.023.59-.564.59h-5.511c-.745,0-.745,0-.745.728v16.524c0,.686,0,.683-.7.688l-9,.062c-.657,0-.677-.02-.677-.688V112.06c0-.686,0-.686-.7-.686h-6.123c-.463,0-.59-.152-.587-.6q.031-3.31,0-6.62c0-.454.138-.593.593-.59C127.249,103.592,131.168,103.587,135.085,103.587Z" transform="translate(-122.765 -103.471)"/><path class="a" d="M312.533,103.608H324.2c.593,0,.609.014.612.6v6.436c0,.621-.031.646-.674.646h-5.491c-.649,0-.652,0-.652.641v16.611c0,.683,0,.68-.7.686l-9,.062c-.66,0-.68-.02-.68-.683V112.088c0-.691,0-.691-.691-.691h-6.123c-.454,0-.6-.135-.593-.59.02-2.207,0-4.413,0-6.617,0-.581,0-.59.618-.59Z" transform="translate(-250.152 -103.492)"/><path class="b" d="M604.821,251.661c.308.107.6.2.889.31a6.005,6.005,0,0,1,4.091,4.836,6.256,6.256,0,0,1-2.142,5.906,10.3,10.3,0,0,1-5.482,2.3,41.5,41.5,0,0,1-9.828.206l-1.343-.113c-.587-.054-.626-.1-.626-.688V241.145c0-.635,0-.663.626-.739a51.136,51.136,0,0,1,9.876-.361,11.761,11.761,0,0,1,5.158,1.428,5.425,5.425,0,0,1,2.695,6.34,6,6,0,0,1-3.493,3.6C605.109,251.477,604.945,251.489,604.821,251.661Zm-8.465,5.925V260.6c0,.361.107.519.485.511.782-.014,1.56,0,2.342,0a5.957,5.957,0,0,0,2.525-.564,3.087,3.087,0,0,0,1.456-1.3,3.167,3.167,0,0,0-1.783-4.644,13.269,13.269,0,0,0-4.718-.474c-.319,0-.3.223-.3.437-.006,1.007,0,2.012-.006,3.019Zm0-10.44v2.472c0,.313.11.426.42.415.466-.017.931.017,1.394,0a8.312,8.312,0,0,0,3.1-.564,2.714,2.714,0,0,0,1.693-2.585,2.556,2.556,0,0,0-1.876-2.373,10.918,10.918,0,0,0-4.359-.226c-.31.023-.384.2-.378.485.017.779.009,1.572.009,2.367Z" transform="translate(-458.453 -201.37)"/><path class="b" d="M239.458,253.265a9.764,9.764,0,0,1,1.129.669,7.219,7.219,0,0,1,2.3,3.832c.593,2.029,1.143,4.072,1.713,6.109.04.144.085.282.135.426.282.773.282.773-.519.773-1.591,0-3.183-.017-4.771,0a.725.725,0,0,1-.8-.545,44.868,44.868,0,0,1-1.56-5.361c-.1-.406-.217-.81-.356-1.208a3.5,3.5,0,0,0-3.756-2.723c-.435,0-.872.02-1.3,0s-.516.133-.514.519c.017,1.693,0,3.386,0,5.079v3.513c0,.7,0,.705-.686.705h-4.6c-.7,0-.7,0-.7-.683V241.05c0-.477.155-.66.612-.717a50.478,50.478,0,0,1,9.876-.353,13.1,13.1,0,0,1,4.814,1.2,6.442,6.442,0,0,1,1,10.948,10.314,10.314,0,0,1-2.02,1.134Zm-8.3-5.561v2.875c0,.364.113.516.491.505.793-.025,1.589,0,2.381-.028a4.972,4.972,0,0,0,2.4-.649,3.106,3.106,0,0,0,1.62-3.126,2.889,2.889,0,0,0-1.955-2.661,10.83,10.83,0,0,0-4.441-.3c-.426,0-.511.223-.5.6C231.17,245.841,231.156,246.772,231.156,247.7Z" transform="translate(-196.3 -201.32)"/><path class="b" d="M339.573,248.592v-7.4c0-.609.017-.624.635-.626h4.862c.415,0,.564.138.564.545q0,6.979-.014,13.959a14.372,14.372,0,0,1-.705,4.382,8.5,8.5,0,0,1-5.5,5.773,13.95,13.95,0,0,1-9.4,0,8.164,8.164,0,0,1-5.2-5.793,16.7,16.7,0,0,1-.655-4.8c.017-4.455,0-8.914,0-13.372,0-.686,0-.686.7-.688h4.684c.6,0,.607,0,.607.6v13.914a11.262,11.262,0,0,0,.37,2.847,4.5,4.5,0,0,0,6.648,2.9,4.409,4.409,0,0,0,2.108-3.005,10.694,10.694,0,0,0,.3-2.754C339.567,252.906,339.573,250.745,339.573,248.592Z" transform="translate(-267.349 -201.814)"/><path class="b" d="M771.907,253.059V241.306c0-.734,0-.736.75-.736h14.769c.711,0,.714,0,.714.728,0,1.157-.014,2.314,0,3.468,0,.415-.141.542-.564.539h-9.049c-.6,0-.6,0-.6.6v3.874c0,.6,0,.607.593.607h8.332c.652,0,.655,0,.655.635v3.51c0,.4-.121.519-.516.516-2.822-.014-5.643,0-8.465,0-.6,0-.607,0-.607.593v4.681c0,.412.133.545.545.545,3.18-.014,6.363,0,9.546,0,.646,0,.649,0,.649.655v3.558c0,.392-.133.516-.522.516H772.417c-.508,0-.547-.234-.547-.629Q771.926,259,771.907,253.059Z" transform="translate(-588.733 -201.814)"/><path class="b" d="M137,239.24a17.683,17.683,0,0,1,5.782.813c.731.24.722.251.519.976-.3,1.081-.6,2.164-.911,3.248-.161.564-.164.564-.714.387a12.7,12.7,0,0,0-6.992-.418,7.139,7.139,0,0,0-5.564,6.129,10.968,10.968,0,0,0,.119,4.114,6.983,6.983,0,0,0,5.925,5.547,14.019,14.019,0,0,0,6.622-.457c.384-.113.519-.076.593.344.2,1.168.432,2.331.68,3.488.09.429-.045.621-.451.751a18.907,18.907,0,0,1-4.01.782,20.612,20.612,0,0,1-7.054-.516,11.49,11.49,0,0,1-8.7-9.574,14.142,14.142,0,0,1,1.064-8.31,12.338,12.338,0,0,1,8.482-6.747A15.322,15.322,0,0,1,137,239.24Z" transform="translate(-122.699 -200.854)"/><path class="b" d="M443.217,239.231a17.576,17.576,0,0,1,5.674.81c.722.237.717.248.514.985-.31,1.112-.635,2.221-.923,3.338-.1.384-.226.466-.615.327a12.765,12.765,0,0,0-6.69-.542,7.161,7.161,0,0,0-5.925,6.086,9.7,9.7,0,0,0,.581,5.691,6.965,6.965,0,0,0,5.446,4.1,14.235,14.235,0,0,0,6.622-.463c.392-.113.525-.056.6.347q.319,1.795.688,3.575a.468.468,0,0,1-.372.632,18.29,18.29,0,0,1-4,.8,19.252,19.252,0,0,1-7.226-.536c-4.754-1.371-7.7-4.47-8.567-9.368a13.36,13.36,0,0,1,1.851-9.972,12.743,12.743,0,0,1,7.991-5.361c.655-.161,1.323-.26,1.989-.361A14.912,14.912,0,0,1,443.217,239.231Z" transform="translate(-342.435 -200.845)"/><path class="c" d="M518.888,146.5a15,15,0,0,0,1.208,5.288c.183.443.4.875.609,1.3.093.186.22.409.468.35s.319-.308.325-.539a10.253,10.253,0,0,0,0-1.349,13.377,13.377,0,0,1,.356-4.1,9.811,9.811,0,0,1,2.257-4.441,14.255,14.255,0,0,0,3.1-13.544c-.071-.262-.147-.522-.217-.782a.933.933,0,0,1,0-.138,1.781,1.781,0,0,1,.564.415,14.487,14.487,0,0,1,3.919,6.208,27.287,27.287,0,0,1,1.411,7.446c.135,2.147.028,4.292.073,6.436a20.667,20.667,0,0,0,.262,2.951,1.126,1.126,0,0,0,.02.135c.059.229.085.533.353.564s.361-.282.432-.491a33.019,33.019,0,0,0,1.9-8.036c.02-.265.068-.53.1-.83.2.076.209.254.26.389a18.784,18.784,0,0,1,1.16,7.824,4.62,4.62,0,0,1-.773,2.765,4.111,4.111,0,0,1-3.668,1.388,16.7,16.7,0,0,0-3.273-.073c-.282.042-.435-.062-.466-.341a32.178,32.178,0,0,0-2.3-7.7,7.021,7.021,0,0,1-.429-1.741,4.109,4.109,0,0,0-.127-.663c-.039-.152-.059-.358-.251-.392s-.282.161-.356.3a10.4,10.4,0,0,0-1.481,4.354,20.058,20.058,0,0,0,.158,5.559c.093.564,0,.7-.587.8a1.34,1.34,0,0,1-.449.02,20.391,20.391,0,0,0-3.188-.085c-.917-.017-1.222-.237-1.473-1.129a13.264,13.264,0,0,1-.167-7.666A.669.669,0,0,1,518.888,146.5Z" transform="translate(-406.591 -121.402)"/><path class="d" d="M529.843,228.393c.113.454-.175.578-.635.669a11.138,11.138,0,0,0-7.655,5.626,28.111,28.111,0,0,0-3.141,9.382,80.481,80.481,0,0,0-1.019,8.747c-.113,1.569-.212,3.141-.245,4.712,0,.446-.206.516-.581.516s-.539-.079-.547-.5c-.056-2.144-.082-4.286-.251-6.425a53.28,53.28,0,0,0-2.178-12.647,18.253,18.253,0,0,0-3.132-6.036,9.613,9.613,0,0,0-5.183-3.386c-.516-.127-.564-.254-.5-1.036.037-.463.37-.356.632-.356q11.23-.017,22.46-.025c.389,0,.782,0,1.168-.031C529.8,227.546,529.846,227.58,529.843,228.393Z" transform="translate(-396.988 -192.495)"/><path class="b" d="M690.929,253.044V241.193c0-.657,0-.66.643-.663,1.591,0,3.183.014,4.771,0,.457,0,.587.144.587.6q-.023,9.455,0,18.905c0,.674,0,.674.694.674h9.094c.632,0,.638,0,.641.621v3.691c0,.392-.127.519-.519.519q-7.7-.017-15.4,0c-.5,0-.516-.251-.514-.615Q690.932,258.984,690.929,253.044Z" transform="translate(-530.631 -201.785)"/><path class="e" d="M222.776,351.627h99.7a.262.262,0,0,1,.282.282c0,.2-.076.319-.282.33H123.116a.276.276,0,0,1-.316-.3.294.294,0,0,1,.327-.333h.584Z" transform="translate(-122.807 -281.522)"/><path class="d" d="M302.494,381.9a2.663,2.663,0,0,1,1.938,2.2,3.238,3.238,0,0,1-2.985,3.8c-1.859.071-3.722.02-5.584.031-.37,0-.4-.214-.4-.5V377.156c0-.6,0-.618.593-.618,1.56,0,3.121-.017,4.681.014a3.664,3.664,0,0,1,2.142.564,2.816,2.816,0,0,1-.09,4.568C302.712,381.727,302.647,381.784,302.494,381.9Zm-3.214,4.644h0c.564,0,1.129.017,1.707,0a1.826,1.826,0,0,0,1.851-1.721,1.668,1.668,0,0,0-1.552-1.941,27.247,27.247,0,0,0-3.9-.082c-.282,0-.282.214-.282.415v2.92c0,.31.121.429.426.423C298.11,386.541,298.694,386.541,299.281,386.541Zm-.133-8.62h-1.679c-.234,0-.364.087-.364.341v2.785c0,.243.1.358.35.356a27.129,27.129,0,0,0,3.454-.1,1.576,1.576,0,0,0,1.473-1.637,1.53,1.53,0,0,0-1.456-1.676,13.312,13.312,0,0,0-1.78-.071Z" transform="translate(-246.749 -299.413)"/><path class="d" d="M455.739,379.136a.686.686,0,0,0-.085.511v7.618c0,.615,0,.629-.629.626-1.007,0-.92.1-.92-.92v-9.817c0-.643,0-.59.652-.66a1.532,1.532,0,0,1,1.625.846c1.642,2.624,3.335,5.212,5.028,7.793.054.085.085.195.209.229a.807.807,0,0,0,.045-.474q0-3.852,0-7.7c0-.686,0-.688.663-.686.962,0,.889-.085.889.906v9.876c0,.6-.02.55-.6.626a1.653,1.653,0,0,1-1.8-.945c-1.552-2.5-3.188-4.944-4.8-7.407A4.845,4.845,0,0,0,455.739,379.136Z" transform="translate(-360.629 -299.376)"/><path class="f" d="M658.589,386.926l2.585.564c.564.121.564.121.384.666a2.065,2.065,0,0,0-.085.254c-.079.4-.282.488-.677.372-1.256-.364-2.506-.734-3.742-1.157a4.335,4.335,0,0,0-.962-.223,4.9,4.9,0,0,1-4.673-4.086,6.627,6.627,0,0,1,1.112-5.767,4.866,4.866,0,0,1,4.85-1.814A4.551,4.551,0,0,1,661.2,378.9a6.8,6.8,0,0,1-.807,6.552,4.252,4.252,0,0,1-1.806,1.366ZM660,381.472a5.155,5.155,0,0,0-.483-2.477,3.194,3.194,0,0,0-2.861-2.063,3.146,3.146,0,0,0-3.188,1.927,6.019,6.019,0,0,0-.116,5.141,3.169,3.169,0,0,0,3.183,2.125,3.243,3.243,0,0,0,3.033-2.209,5.4,5.4,0,0,0,.426-2.444Z" transform="translate(-502.116 -298.785)"/><path class="d" d="M545.6,387.469a5.661,5.661,0,0,1-3.064-.827,3.561,3.561,0,0,1-1.617-2.726c-.045-.384.088-.578.494-.533h.268c.691,0,.688,0,.846.643a2.384,2.384,0,0,0,1.49,1.744,4.45,4.45,0,0,0,3.253.045,1.727,1.727,0,0,0,1.194-1.693,1.565,1.565,0,0,0-1.1-1.5,7.319,7.319,0,0,0-1.546-.474c-.686-.161-1.371-.324-2.054-.5a4.624,4.624,0,0,1-.72-.251,2.56,2.56,0,0,1-1.766-2.088,3.014,3.014,0,0,1,1.292-2.982,5.419,5.419,0,0,1,5.674,0,3.208,3.208,0,0,1,1.346,2.539c.02.282-.073.4-.347.387h-.316c-.762,0-.762,0-1-.722a2.38,2.38,0,0,0-2.322-1.6,4.17,4.17,0,0,0-1.467.178,1.67,1.67,0,0,0-1.23,1.936,1.253,1.253,0,0,0,.753.894,8.654,8.654,0,0,0,2.144.652,9.974,9.974,0,0,1,2.932.979,3,3,0,0,1,.344,4.757A5.242,5.242,0,0,1,545.6,387.469Z" transform="translate(-422.942 -298.691)"/><path class="d" d="M588.788,375.57a4.392,4.392,0,0,1,3.293,1.185,3.321,3.321,0,0,1,.894,2.111c.025.327-.1.44-.406.42h-.282c-.753,0-.753,0-.976-.694a2.368,2.368,0,0,0-2.3-1.625,4.1,4.1,0,0,0-1.512.178,1.67,1.67,0,0,0-1.2,1.953,1.273,1.273,0,0,0,.762.889,8.808,8.808,0,0,0,2.1.638,10.2,10.2,0,0,1,2.974.99,2.993,2.993,0,0,1,.316,4.757,5.507,5.507,0,0,1-4.328,1.069,4.9,4.9,0,0,1-2.271-.8,3.583,3.583,0,0,1-1.563-2.712c-.039-.35.068-.564.463-.516h.09c.846,0,.846,0,1.095.787a2.746,2.746,0,0,0,2.593,1.891,4.382,4.382,0,0,0,2-.2,1.789,1.789,0,0,0,1.309-1.747,1.668,1.668,0,0,0-1.2-1.524,15.361,15.361,0,0,0-2.3-.618,14.148,14.148,0,0,1-2.1-.643,2.82,2.82,0,0,1-.725-4.625A4.709,4.709,0,0,1,588.788,375.57Z" transform="translate(-454.076 -298.722)"/><path class="d" d="M391.111,387.533a5.074,5.074,0,0,1-3.682-1.349,3.55,3.55,0,0,1-.988-2.257c-.028-.35.11-.511.463-.477h.087c.861,0,.846,0,1.1.784a2.384,2.384,0,0,0,1.462,1.608,4.461,4.461,0,0,0,3.214.051,1.735,1.735,0,0,0,1.227-1.693,1.61,1.61,0,0,0-1.151-1.51,7.51,7.51,0,0,0-1.5-.451c-.686-.164-1.371-.327-2.054-.505a4.756,4.756,0,0,1-.722-.251,2.554,2.554,0,0,1-1.755-2.1,3.008,3.008,0,0,1,1.3-2.977,5.438,5.438,0,0,1,5.643-.017,3.177,3.177,0,0,1,1.371,2.565c0,.085.014.226-.034.254-.367.237-.782.09-1.177.113-.186,0-.282-.1-.347-.282a2.615,2.615,0,0,0-3.33-1.975,2.858,2.858,0,0,0-.863.245,1.645,1.645,0,0,0-.937,1.566,1.328,1.328,0,0,0,.942,1.239,10.289,10.289,0,0,0,1.944.564,10.117,10.117,0,0,1,2.974.99,3,3,0,0,1,.324,4.757A5.526,5.526,0,0,1,391.111,387.533Z" transform="translate(-312.056 -298.752)"/><path class="d" d="M501.67,382.2v-5.13c0-.4.124-.564.542-.547q3.445.023,6.885,0c.4,0,.525.138.525.525,0,.861,0,.861-.846.861-1.62,0-3.242.014-4.862,0-.44,0-.618.107-.6.564.034.807.023,1.62,0,2.429,0,.375.13.491.5.488,1.591-.014,3.183,0,4.771,0,.195,0,.485-.1.547.166a1.631,1.631,0,0,1-.037,1.1c-.079.161-.3.107-.46.107h-4.726c-.443,0-.612.116-.6.581.031.883.025,1.772,0,2.655,0,.409.121.55.539.545,1.71-.017,3.42,0,5.13,0,.209,0,.519-.107.6.161a1.843,1.843,0,0,1-.017,1.1c-.039.121-.2.107-.322.107h-7.156c-.409,0-.409-.251-.409-.536Q501.673,384.792,501.67,382.2Z" transform="translate(-394.774 -299.408)"/><path class="d" d="M350,380.7v3.242c-.014,2.523-1.227,3.914-3.742,4.2a5.66,5.66,0,0,1-3.891-.784,3.425,3.425,0,0,1-1.493-2.793c-.166-2.02-.042-4.049-.073-6.072v-1.532c0-.3.127-.426.435-.42,1.428.02,1.188-.158,1.2,1.129v5.852a3.491,3.491,0,0,0,.516,2.153,3.051,3.051,0,0,0,3.146,1.084,2.439,2.439,0,0,0,2.257-2.593c.025-2.308,0-4.622.017-6.933,0-.686.014-.7.714-.694,1.024,0,.917-.09.92.914C350,378.535,350,379.616,350,380.7Z" transform="translate(-279.285 -299.413)"/><path class="f" d="M176.038,381.894v-5.133c0-.4.119-.564.539-.55,1.129.028,1.016-.119,1.019,1.013s0,2.19,0,3.284c0,.341.1.485.463.482,1.487-.014,2.971-.017,4.458,0,.392,0,.477-.155.474-.508-.017-1.23,0-2.46-.014-3.691,0-.418.107-.6.564-.584,1.129.034,1.01-.1,1.013,1.021v9.726c0,.643,0,.646-.655.643-.99,0-.9.1-.9-.886V382.8c0-.4-.124-.519-.516-.514q-2.184.031-4.365,0c-.4,0-.522.135-.516.522.017,1.411,0,2.822,0,4.232,0,.426-.13.584-.564.564-1.129-.034-.985.113-.99-.988C176.023,385.046,176.038,383.469,176.038,381.894Z" transform="translate(-161.02 -299.18)"/><path class="f" d="M720.505,380.217V376.8c0-.429.15-.584.581-.564,1.083.031,1.036-.133,1.036,1.01,0,1.859.017,3.722,0,5.581a5.7,5.7,0,0,1-1.03,3.567,3.147,3.147,0,0,1-.638.632,4.147,4.147,0,0,1-6.71-2.94,12.387,12.387,0,0,1-.085-1.481v-5.807c0-.389.1-.564.531-.564,1.2.031,1.027-.1,1.033,1.041v5.762a4.777,4.777,0,0,0,.412,2.1A2.313,2.313,0,0,0,718.3,386.5a2.384,2.384,0,0,0,2.026-1.795,5.388,5.388,0,0,0,.192-1.512v-2.974Z" transform="translate(-546.947 -299.195)"/><path class="f" d="M805.973,387.548H802.24c-.381,0-.511-.141-.494-.5a1.453,1.453,0,0,1,.282-.784q2.85-4.156,5.686-8.321c.087-.13.282-.257.183-.423s-.282-.062-.42-.062h-4.625c-.545,0-.564-.025-.564-.6,0-.646.028-.691.578-.691H809.3c.234,0,.564-.135.686.164a1.024,1.024,0,0,1-.087.951c-.333.5-.669,1-1,1.493q-2.4,3.513-4.8,7.026c-.079.116-.254.231-.155.387s.251.062.381.062h5.22c.2,0,.48-.085.539.189a1.442,1.442,0,0,1-.051,1.007c-.076.144-.282.093-.418.093Z" transform="translate(-610.178 -299.125)"/><path class="f" d="M233.85,381.934V376.8c0-.429.133-.564.564-.564,1.71.02,3.42,0,5.13,0,.514,0,.519.034.539.68,0,.409-.065.635-.564.624-1.213-.031-2.429,0-3.643-.017-.347,0-.482.107-.477.466.02.846.017,1.71,0,2.565,0,.353.127.474.477.471,1.129-.014,2.257,0,3.386,0,.545,0,.564.028.564.652s-.017.632-.564.632c-1.095,0-2.19.014-3.284,0-.4,0-.564.093-.564.525.028,1,.023,2.012,0,3.016,0,.378.135.491.5.488,1.275-.017,2.539,0,3.826,0,.547,0,.564.02.564.652s0,.641-.564.641h-5.31c-.435,0-.564-.141-.564-.564C233.861,385.351,233.85,383.641,233.85,381.934Z" transform="translate(-202.523 -299.203)"/><path class="f" d="M126.924,376.24h3.51c.708,0,.708,0,.711.641s0,.66-.734.663-1.47.02-2.2,0c-.429-.017-.564.118-.564.564.017,2.94,0,5.88,0,8.82,0,.711,0,.711-.717.714-.846,0-.846,0-.846-.824v-8.685c0-.46-.141-.6-.593-.584-.765.034-1.532,0-2.3.017-.443.017-.6-.158-.564-.564a1.448,1.448,0,0,0,0-.282c-.034-.358.138-.468.48-.466C124.4,376.248,125.663,376.24,126.924,376.24Z" transform="translate(-122.68 -299.203)"/><path class="g" d="M530.511,139.239a11.772,11.772,0,0,1-1.995,6.433c-.22.316-.347.7-.536,1.036-.1.175-.189.418-.449.375s-.254-.282-.313-.454a8.949,8.949,0,0,1,0-4.839,25.1,25.1,0,0,1,2.446-6.171c.062-.113.1-.3.251-.282s.138.212.169.336A15.335,15.335,0,0,1,530.511,139.239Z" transform="translate(-412.873 -126.273)"/><path class="d" d="M432.689,382.181v-5.127c0-.4.113-.564.536-.564,1.247.034,1.1-.152,1.1,1.106v9.628c0,.652,0,.657-.649.655-1.106,0-.982.121-.985-.982C432.686,385.333,432.689,383.759,432.689,382.181Z" transform="translate(-345.256 -299.382)"/><path class="f" d="M771.339,381.9v-5.133c0-.4.119-.564.539-.55,1.129.028,1.019-.116,1.019,1.01v9.726c0,.652,0,.655-.649.652-.988,0-.9.1-.9-.886C771.336,385.115,771.339,383.506,771.339,381.9Z" transform="translate(-588.352 -299.186)"/></g></svg>