<?xml version="1.0" encoding="UTF-8"?>
<svg id="Layer_1" data-name="Layer 1" xmlns="http://www.w3.org/2000/svg" viewBox="0 0 765.84 133.61">
  <polygon points="285.27 78.52 285.27 102.35 343.1 102.35 343.1 123.03 261.44 123.03 261.44 10.81 343.1 10.81 343.1 29.87 285.27 29.87 285.27 56.73 336.37 56.73 336.37 78.52 285.27 78.52" style="fill: #fff;"/>
  <path d="m381.46,62.99l19.57.04c11.34,0,21.38-1.98,21.38-16.31s-10.39-16.85-21.74-16.85h-19.22v33.12Zm-24.73-52.34h50.72c28.19,0,38.9,17.8,38.9,36.07s-10.71,36.52-38.9,36.52h-25.99v39.87h-24.73V10.65Z" style="fill: #fff;"/>
  <path d="m25.72,27.08s-5.85,4.35-12.42,18.02c0,0-6.06,13.89-4.08,25.92,0,0,3.55,26.66,30.53,32.27,0,0,20.99,4.87,34.78-5.82,0,0,13.53-8.46,17.13-26.17,0,0,2.98-12.07-3.59-23.03-2.36-3.95-5.93-7.32-10.18-9.15-4.31-1.85-9.81-2.29-13.18,1.49-2.15,2.4-2.46,7.27.55,9.16.35.22.74.43,1.13.59,0,0-4.49-4.02-.18-8.09,1.13-1.06,3.16-1.43,4.62-1.4,4.04.08,8.04,3.21,9.41,6.92,2.29,6.17,2.6,13.18-.45,19.15-2.45,4.77-6.56,7.97-11.35,10.16,0,0-13.77,8.2-31.59-1.46,0,0-13.27-6.04-16.5-24.31,0,0-1.9-11.83,5.37-24.24" style="fill: #fff;"/>
  <path d="m66.6,46.22c1-.9,2.19-1.35,3.5-1.18,1.55.2,3.37,1.5,3.71,3.08.16.74.09,1.51-.03,2.26-.93,5.54-6.34,9.24-11.81,8.15-1.03-.21-2.04-.54-3.01-.96-12.23-5.28-9.5-22.55-3.21-31.33,2.21-3.09,4.85-4.89,8.07-6.81,0,0,9.37-5.57,28.77-1.46-1.09-.23-2.46-1.42-3.48-1.91-3.28-1.56-6.76-2.71-10.29-3.54-10.67-2.5-22.46-2.32-32.82,1.42-3.24,1.17-6.34,2.74-9.13,4.78-4.89,3.57-8.68,11.4-9.07,17.42,0,.02,0,.04,0,.05-5.38,36.56,42.94,44.59,49.85,21.09,3.59-12.19-9.66-18.1-11.79-10.34l.76-.73" style="fill: #fff;"/>
  <path d="m24.87,106.31s18.89,11.6,44.15,5.04c0,0,13.45-2.68,23.7-16.21,0,0,10.85-13.04,9.13-32.17,0,0-1.14-17.29-14.14-25.59,0,0-9.87-6.54-21.91-1.25,0,0-8.34,4.12-3.47,12.71,0,0,1.94,3.34,4.65,3.41,0,0-5.48,1.16-8.47-6.18,0,0-3.45-9.55,3.86-17.28,0,0,9.43-11.53,29.55-5.69,17.96,5.22,29.11,23.04,29.11,41.34,0,0,1.5,12.58-5.75,27.47,0,0-4.49,10.07-14.96,18.65,0,0-8.66,8.05-24.21,11.42,0,0-13.5,4.4-33.12-3.34,0,0-11.85-4.77-18.1-12.33" style="fill: #fff;"/>
  <path d="m191.21,63.01v20.11h29.49c-5.71,10.34-16.72,17.35-29.37,17.35-18.52,0-33.53-15.02-33.53-33.53s15.01-33.53,33.53-33.53c11.88,0,22.32,6.18,28.28,15.5h28.16c-7.55-22.19-31.59-38.16-56.44-38.16-31.19,0-56.47,25.16-56.47,56.19s25.28,56.2,56.47,56.2,56.47-25.16,56.47-56.2c0-1.32-.05-2.62-.14-3.92h-56.45Z" style="fill: #fff;"/>
  <path d="m447.39,16.19c.19,0,.38,0,.55-.02.18-.02.33-.06.46-.13.13-.07.24-.17.32-.3.08-.13.12-.31.12-.54,0-.19-.04-.34-.13-.45-.09-.11-.2-.2-.33-.26-.13-.06-.28-.1-.44-.12-.16-.01-.32-.02-.47-.02h-1.24v1.84h1.15Zm-1.15,3.57h-1.03v-6.29h2.39c.76,0,1.33.14,1.72.43.38.28.58.74.58,1.38,0,.57-.15.98-.47,1.25-.32.26-.7.42-1.17.47l1.76,2.77h-1.17l-1.62-2.69h-.97v2.69Zm5.47-3.25c0-.69-.11-1.32-.34-1.9-.22-.58-.53-1.07-.93-1.49-.4-.42-.86-.74-1.38-.97-.53-.23-1.1-.34-1.7-.34s-1.2.11-1.73.34c-.53.23-.99.55-1.39.97-.4.42-.71.91-.93,1.49-.23.58-.34,1.21-.34,1.9,0,.65.1,1.26.3,1.82.2.57.49,1.06.87,1.49s.84.76,1.38,1.01c.54.25,1.14.37,1.82.37.61,0,1.17-.12,1.7-.34.53-.23.99-.55,1.38-.97.39-.42.7-.91.93-1.48.22-.57.34-1.21.34-1.91m1.22,0c0,.85-.15,1.62-.45,2.32-.3.7-.71,1.3-1.22,1.8-.51.5-1.11.88-1.78,1.15-.67.27-1.38.41-2.12.41-.82,0-1.57-.15-2.26-.43-.68-.29-1.27-.69-1.76-1.19-.49-.51-.88-1.11-1.16-1.8-.28-.69-.42-1.45-.42-2.26,0-.85.15-1.62.45-2.32.3-.7.7-1.3,1.22-1.8.51-.5,1.11-.88,1.79-1.15.68-.27,1.39-.41,2.14-.41s1.44.14,2.12.41c.67.27,1.27.66,1.78,1.15.51.5.92,1.1,1.22,1.8.3.7.45,1.47.45,2.32" style="fill: #fff;"/>
  <rect x="466.47" y="10.65" width="1.55" height="112.47" style="fill: #fff;"/>
  <g>
    <path d="m480.41,10.71h5.79v27.87h-5.79V10.71Z" style="fill: #fff;"/>
    <path d="m514.16,38.58h-5.82l-11.38-19.8v19.8h-5.43V10.71h6.11l11.1,19.45V10.71h5.43v27.87Z" style="fill: #fff;"/>
    <path d="m539.84,10.71v4.93h-8.34v22.93h-5.86V15.64h-8.38v-4.93h22.57Z" style="fill: #fff;"/>
    <path d="m562.64,26.4h-13.54v7.17h15.43v5.01h-21.12V10.71h20.44v4.93h-14.75v5.92h13.54v4.84Z" style="fill: #fff;"/>
    <path d="m569.07,10.71h5.82v22.86h13.8v5.01h-19.62V10.71Z" style="fill: #fff;"/>
    <path d="m592.72,10.71h5.82v22.86h13.8v5.01h-19.62V10.71Z" style="fill: #fff;"/>
    <path d="m615.92,10.71h5.79v27.87h-5.79V10.71Z" style="fill: #fff;"/>
    <path d="m644.22,37.9c-1.54.95-3.43,1.42-5.67,1.42-3.69,0-6.72-1.28-9.08-3.84-2.46-2.57-3.69-6.09-3.69-10.55s1.24-8.13,3.72-10.85c2.48-2.72,5.77-4.08,9.85-4.08,3.54,0,6.39.9,8.54,2.69,2.15,1.8,3.38,4.04,3.7,6.72h-5.73c-.44-1.9-1.52-3.23-3.23-3.99-.96-.42-2.02-.62-3.2-.62-2.24,0-4.09.85-5.53,2.54-1.44,1.7-2.17,4.24-2.17,7.65s.78,5.85,2.34,7.28c1.56,1.42,3.34,2.14,5.33,2.14s3.55-.56,4.8-1.69c1.25-1.13,2.02-2.61,2.31-4.43h-6.45v-4.65h11.61v14.96h-3.86l-.59-3.48c-1.12,1.32-2.13,2.26-3.03,2.8Z" style="fill: #fff;"/>
    <path d="m676.64,26.4h-13.54v7.17h15.43v5.01h-21.12V10.71h20.44v4.93h-14.75v5.92h13.54v4.84Z" style="fill: #fff;"/>
    <path d="m705.61,38.58h-5.82l-11.38-19.8v19.8h-5.43V10.71h6.11l11.1,19.45V10.71h5.43v27.87Z" style="fill: #fff;"/>
    <path d="m730.7,36.5c-2.08,1.9-4.74,2.85-7.98,2.85-4.01,0-7.16-1.29-9.45-3.86-2.29-2.58-3.44-6.13-3.44-10.63,0-4.86,1.3-8.61,3.91-11.25,2.27-2.29,5.15-3.44,8.66-3.44,4.69,0,8.12,1.54,10.29,4.61,1.2,1.73,1.84,3.46,1.93,5.2h-5.82c-.38-1.34-.86-2.34-1.46-3.03-1.06-1.21-2.63-1.81-4.71-1.81s-3.79.85-5.01,2.56c-1.22,1.71-1.83,4.12-1.83,7.25s.65,5.47,1.94,7.02,2.93,2.33,4.92,2.33,3.6-.67,4.67-2c.59-.72,1.08-1.8,1.48-3.23h5.77c-.5,3.04-1.79,5.51-3.86,7.41Z" style="fill: #fff;"/>
    <path d="m758.4,26.4h-13.54v7.17h15.43v5.01h-21.12V10.71h20.44v4.93h-14.75v5.92h13.54v4.84Z" style="fill: #fff;"/>
    <path d="m492.87,80.7h-12.01v-27.87h12.01c1.73.03,3.16.23,4.31.6,1.95.64,3.54,1.82,4.75,3.54.97,1.39,1.63,2.89,1.98,4.5.35,1.61.53,3.15.53,4.61,0,3.71-.74,6.84-2.23,9.42-2.02,3.47-5.13,5.2-9.34,5.2Zm4.33-20.76c-.9-1.51-2.67-2.27-5.31-2.27h-5.37v18.19h5.37c2.75,0,4.66-1.36,5.75-4.07.59-1.49.89-3.26.89-5.31,0-2.84-.44-5.02-1.32-6.54Z" style="fill: #fff;"/>
    <path d="m520.66,69.77h-6.01v10.93h-5.69v-27.87h13.67c1.95.04,3.46.28,4.51.72,1.05.44,1.94,1.09,2.67,1.95.61.71,1.08,1.49,1.44,2.34.35.86.53,1.83.53,2.93,0,1.32-.33,2.63-1,3.9-.67,1.28-1.77,2.18-3.31,2.71,1.29.52,2.2,1.25,2.73,2.2.54.95.8,2.4.8,4.36v1.87c0,1.27.05,2.14.15,2.59.15.72.5,1.25,1.06,1.59v.7h-6.41c-.18-.62-.3-1.12-.38-1.49-.15-.78-.23-1.58-.25-2.4l-.04-2.59c-.03-1.78-.35-2.96-.97-3.55-.62-.59-1.79-.89-3.51-.89Zm3.54-5.07c1.16-.53,1.74-1.58,1.74-3.14,0-1.69-.56-2.82-1.68-3.4-.63-.33-1.58-.49-2.84-.49h-6.77v7.49h6.6c1.31,0,2.29-.15,2.95-.45Z" style="fill: #fff;"/>
    <path d="m536.34,52.83h5.79v27.87h-5.79v-27.87Z" style="fill: #fff;"/>
    <path d="m545.49,52.83h6.22l6.05,21.16,6.11-21.16h6.05l-9.51,27.87h-5.5l-9.42-27.87Z" style="fill: #fff;"/>
    <path d="m592.77,68.53h-13.54v7.17h15.43v5.01h-21.12v-27.87h20.44v4.93h-14.75v5.92h13.54v4.84Z" style="fill: #fff;"/>
    <path d="m609.32,76.67c1.37,0,2.49-.15,3.35-.45,1.63-.58,2.44-1.66,2.44-3.23,0-.92-.4-1.63-1.21-2.14-.81-.49-2.07-.93-3.8-1.3l-2.95-.66c-2.9-.66-4.9-1.37-6.01-2.14-1.88-1.29-2.82-3.3-2.82-6.03,0-2.5.91-4.57,2.72-6.22,1.82-1.65,4.48-2.48,8-2.48,2.94,0,5.44.78,7.51,2.33s3.16,3.82,3.26,6.78h-5.6c-.1-1.68-.83-2.87-2.19-3.57-.91-.47-2.04-.7-3.38-.7-1.5,0-2.7.3-3.59.91-.9.6-1.34,1.45-1.34,2.53,0,1,.44,1.74,1.32,2.23.57.33,1.78.71,3.63,1.15l4.8,1.15c2.1.5,3.69,1.18,4.76,2.02,1.66,1.31,2.5,3.21,2.5,5.69s-.97,4.66-2.92,6.34-4.7,2.52-8.25,2.52-6.48-.83-8.56-2.49-3.12-3.94-3.12-6.83h5.56c.18,1.27.52,2.22,1.04,2.85.95,1.15,2.57,1.72,4.86,1.72Z" style="fill: #fff;"/>
    <path d="m480.41,94.96h5.79v27.87h-5.79v-27.87Z" style="fill: #fff;"/>
    <path d="m514.16,122.83h-5.82l-11.38-19.79v19.79h-5.43v-27.87h6.11l11.1,19.46v-19.46h5.43v27.87Z" style="fill: #fff;"/>
    <path d="m542.12,122.83h-5.82l-11.38-19.79v19.79h-5.43v-27.87h6.11l11.1,19.46v-19.46h5.43v27.87Z" style="fill: #fff;"/>
    <path d="m559.88,123.6c-3.98,0-7.03-1.08-9.13-3.25-2.82-2.66-4.24-6.49-4.24-11.5s1.41-8.94,4.24-11.5c2.1-2.17,5.15-3.25,9.13-3.25s7.03,1.08,9.13,3.25c2.81,2.56,4.22,6.39,4.22,11.5s-1.41,8.84-4.22,11.5c-2.1,2.17-5.15,3.25-9.13,3.25Zm5.5-7.49c1.35-1.7,2.02-4.12,2.02-7.26s-.68-5.54-2.03-7.25c-1.35-1.71-3.19-2.56-5.49-2.56s-4.15.85-5.52,2.55c-1.37,1.7-2.06,4.12-2.06,7.26s.69,5.56,2.06,7.26c1.37,1.7,3.21,2.55,5.52,2.55s4.14-.85,5.5-2.55Z" style="fill: #fff;"/>
    <path d="m575.61,94.96h6.22l6.05,21.16,6.11-21.16h6.05l-9.51,27.87h-5.5l-9.42-27.87Z" style="fill: #fff;"/>
    <path d="m616.96,117.1h-10.27l-1.93,5.73h-6.09l9.94-27.87h6.58l9.87,27.87h-6.32l-1.8-5.73Zm-1.63-4.8l-3.48-10.97-3.59,10.97h7.07Z" style="fill: #fff;"/>
    <path d="m646,94.96v4.93h-8.34v22.93h-5.86v-22.93h-8.38v-4.93h22.57Z" style="fill: #fff;"/>
    <path d="m648.95,94.96h5.79v27.87h-5.79v-27.87Z" style="fill: #fff;"/>
    <path d="m672.48,123.6c-3.98,0-7.03-1.08-9.13-3.25-2.82-2.66-4.24-6.49-4.24-11.5s1.41-8.94,4.24-11.5c2.1-2.17,5.15-3.25,9.13-3.25s7.03,1.08,9.13,3.25c2.81,2.56,4.22,6.39,4.22,11.5s-1.41,8.84-4.22,11.5c-2.1,2.17-5.15,3.25-9.13,3.25Zm5.5-7.49c1.35-1.7,2.02-4.12,2.02-7.26s-.68-5.54-2.03-7.25c-1.35-1.71-3.19-2.56-5.49-2.56s-4.15.85-5.52,2.55c-1.37,1.7-2.06,4.12-2.06,7.26s.69,5.56,2.06,7.26c1.37,1.7,3.21,2.55,5.52,2.55s4.14-.85,5.5-2.55Z" style="fill: #fff;"/>
    <path d="m712.81,122.83h-5.82l-11.38-19.79v19.79h-5.43v-27.87h6.11l11.1,19.46v-19.46h5.43v27.87Z" style="fill: #fff;"/>
  </g>
</svg>